<?xml version="1.0" encoding="UTF-8"?>
<svg width="349px" height="101px" viewBox="0 0 349 101" version="1.1" xmlns="http://www.w3.org/2000/svg" xmlns:xlink="http://www.w3.org/1999/xlink">
    <title>5eb988240edde557f4d9747a_MeetRed-01</title>
    <g id="Page-1" stroke="none" stroke-width="1" fill="none" fill-rule="evenodd">
        <g id="5eb988240edde557f4d9747a_MeetRed-01" fill="#E04444" fill-rule="nonzero">
            <path d="M0.34,83.78 L11.43,83.78 L11.43,40.1 L0.34,40.1 L0.34,24.4 L29.34,24.4 L29.34,36.17 C35.15,29.86 43.34,23 54.43,23 C62.43,23 68.43,26.07 72.18,31 C73.135837,32.3246438 73.9376724,33.7538567 74.57,35.26 C81.56,28.5 89.92,23 99.48,23 C109.89,23 117.05,26.75 120.81,33.75 C122.98093,38.0890064 124.03607,42.9007158 123.88,47.75 L123.88,83.75 L135,83.75 L135,99.14 L95.21,99.14 L95.21,83.78 L105.28,83.78 L105.28,52.22 C105.390319,49.8283029 104.984458,47.4408851 104.09,45.22 C102.55,41.64 99.48,39.93 95.21,39.93 C89.07,39.93 82.59,43.51 76.96,48.29 L76.96,83.78 L87,83.78 L87,99.14 L48.12,99.14 L48.12,83.78 L58.36,83.78 L58.36,52.22 C58.4674626,49.8275577 58.0581751,47.4400472 57.16,45.22 C55.62,41.64 52.72,39.93 48.29,39.93 C42.14,39.93 35.66,43.51 30.03,48.29 L30.03,83.78 L39.93,83.78 L39.93,99.14 L0.34,99.14 L0.34,83.78 Z" id="Path"></path>
            <path d="M152.76,68.08 C155.32,79.69 164.88,84.81 177.33,84.81 C186.33,84.81 195.76,81.91 204.47,76.96 L202.93,93.68 C195.08,98.29 185.53,100.51 174.6,100.51 C150.2,100.51 133.31,85.15 133.31,61.94 C133.31,40.78 148.15,23.04 171.19,23.04 C195.08,23.04 207.54,39.04 207.54,58.87 C207.5275,61.9594519 207.239694,65.0416433 206.68,68.08 L152.76,68.08 Z M152.59,55.08 L188.94,55.08 C188.6,44.84 181.94,38.01 171.02,38.01 C162.83,38.05 154.64,42.83 152.59,55.12 L152.59,55.08 Z" id="Shape"></path>
            <path d="M216.48,68.08 C215.92882,65.0406356 215.644404,61.958904 215.63,58.87 C215.63,39.08 228.08,23 252,23 C275,23 289.89,40.74 289.89,61.9 C289.89,85.11 272.99,100.47 248.59,100.47 C237.67,100.47 228.11,98.25 220.27,93.64 L218.7,77 C227.4,82 236.79,84.85 245.83,84.85 C258.29,84.85 267.83,79.73 270.4,68.12 L216.48,68.08 Z M252.14,38.08 C241.22,38.08 234.57,44.91 234.23,55.15 L270.57,55.15 C268.53,42.83 260.34,38.05 252.14,38.05 L252.14,38.08 Z" id="Shape"></path>
            <path d="M308.75,90.27 C307.043333,87.2033333 306.19,83.2766667 306.19,78.49 L306.19,40.1 L291.68,40.1 L291.68,24.4 L306.19,24.4 L306.19,8.7 L324.62,0.7 L324.62,24.4 L347.31,24.4 L347.31,40.1 L324.62,40.1 L324.62,74.91 C324.511628,76.8044416 324.923121,78.6924721 325.81,80.37 C327.17,82.76 329.9,83.95 333.66,83.95 C338.44,83.95 343.9,82.08 348.33,80.03 L346.8,96.03 C341.258568,98.897636 335.119245,100.418763 328.88,100.470384 C319.84,100.51 312.5,97.43 308.75,90.27 Z" id="Path"></path>
        </g>
    </g>
</svg>